<svg width="20" height="20" viewBox="0 0 20 20" fill="none" xmlns="http://www.w3.org/2000/svg">
<path d="M17.25 5.19261L15.4167 7.02595V2.66536H7.16669V7.2487H2.58336V17.332H15.4167V14.8048L17.25 12.9714V18.256C17.2498 18.4973 17.1538 18.7286 16.9831 18.8991C16.8124 19.0696 16.581 19.1654 16.3398 19.1654H1.66027C1.53989 19.1645 1.42086 19.14 1.30996 19.0931C1.19907 19.0463 1.09849 18.9781 1.01396 18.8923C0.929439 18.8066 0.862625 18.7051 0.817338 18.5936C0.772051 18.482 0.749177 18.3627 0.750023 18.2423V6.33203L6.25277 0.832031H16.3315C16.8375 0.832031 17.25 1.24911 17.25 1.74136V5.19261ZM17.9632 7.07178L19.2594 8.36887L12.1295 15.4987L10.8315 15.4969L10.8334 14.2025L17.9632 7.0727V7.07178Z" fill="black"/>
</svg>
