<svg width="20" height="20" viewBox="0 0 20 20" fill="none" xmlns="http://www.w3.org/2000/svg">
<path d="M10.0007 9.08203V6.33203L13.6673 9.9987L10.0007 13.6654V10.9154H6.33398V9.08203H10.0007ZM10.0007 0.832031C15.0607 0.832031 19.1673 4.9387 19.1673 9.9987C19.1673 15.0587 15.0607 19.1654 10.0007 19.1654C4.94065 19.1654 0.833984 15.0587 0.833984 9.9987C0.833984 4.9387 4.94065 0.832031 10.0007 0.832031ZM10.0007 17.332C14.0523 17.332 17.334 14.0504 17.334 9.9987C17.334 5.94703 14.0523 2.66536 10.0007 2.66536C5.94898 2.66536 2.66732 5.94703 2.66732 9.9987C2.66732 14.0504 5.94898 17.332 10.0007 17.332Z" fill="white"/>
</svg>
